<svg xmlns="http://www.w3.org/2000/svg" viewBox="0 0 140 112" fill="none"><mask id="m" maskUnits="userSpaceOnUse" x="0" y="0" width="140" height="112"><path fill="#fff" d="M2.0 4.0L30.0 15.4Q52.8 9.2 75.5 15.4L103.5 4.0Q106.1 30.2 100.0 51.2Q90.4 83.6 52.8 87.1Q15.1 83.6 5.5 51.2Q-0.6 30.2 2.0 4.0Z"/><circle cx="33.5" cy="42.5" r="19.9" fill="#000"/><circle cx="33.5" cy="42.5" r="8.8" fill="#fff"/><circle cx="72.0" cy="42.5" r="19.9" fill="#000"/><circle cx="72.0" cy="42.5" r="8.8" fill="#fff"/><path fill="#000" stroke="#000" stroke-width="7.0" stroke-linejoin="round" d="M45.8 49.5H59.8L52.8 67.0Z"/><path fill="#fff" d="M45.8 49.5H59.8L52.8 67.0Z"/><rect x="80" y="32" width="64" height="82" rx="16" fill="#000"/><path stroke="#fff" stroke-width="9" d="M98 66v-10a14 14 0 0 1 28 0v10"/><rect x="88" y="66" width="48" height="40" rx="9" fill="#fff"/><circle cx="112.0" cy="82" r="5" fill="#000"/><rect x="109.5" y="84" width="5" height="11" rx="2.5" fill="#000"/></mask><rect width="140" height="112" fill="currentColor" mask="url(#m)"/></svg>
