<svg xmlns="http://www.w3.org/2000/svg" viewBox="0 0 300 300" fill="none"><rect x="30" y="58" width="240" height="196" rx="28" fill="#5f80e0"/><path fill="#ffb825" d="M30 86a28 28 0 0 1 28-28h184a28 28 0 0 1 28 28v18H30Z"/><circle cx="64" cy="82" r="9" fill="#ffffff"/><circle cx="92" cy="82" r="9" fill="#ffecc1"/><circle cx="120" cy="82" r="9" fill="#caf7e7"/><path stroke="#ffb825" stroke-width="18" stroke-linecap="round" stroke-linejoin="round" d="M112 146l-36 34 36 34M188 146l36 34-36 34"/><path stroke="#ffffff" stroke-width="16" stroke-linecap="round" d="M164 134l-28 92"/><path fill="#ffffff" d="M252 16l5.0 13.0 13.0 5.0-13.0 5.0-5.0 13.0-5.0-13.0-13.0-5.0 13.0-5.0Z"/><path fill="#5f80e0" d="M36 270l2.8 7.2 7.2 2.8-7.2 2.8-2.8 7.2-2.8-7.2-7.2-2.8 7.2-2.8Z"/></svg>
