<svg xmlns="http://www.w3.org/2000/svg" viewBox="0 0 300 300" fill="none"><path fill="#ffb825" transform="translate(-16 10)" d="M238 30a34 34 0 1 0 28 54 28 28 0 0 1-28-54Z"/><path fill="#ffffff" d="M150 104c-30-22-70-26-110-18v150c40-8 80-4 110 18Z"/><path fill="#ffecc1" d="M150 104c30-22 70-26 110-18v150c-40-8-80-4-110 18Z"/><rect x="146" y="104" width="8" height="150" fill="#a2bcff"/><path fill="#5fe6c1" d="M200 92h28v74l-14-12-14 12Z"/><rect x="64" y="122" width="62" height="10" rx="5" fill="#5f80e0"/><rect x="64" y="146" width="70" height="10" rx="5" fill="#5f80e0"/><rect x="64" y="170" width="54" height="10" rx="5" fill="#5f80e0"/><rect x="174" y="182" width="62" height="10" rx="5" fill="#e09600"/><rect x="174" y="206" width="48" height="10" rx="5" fill="#e09600"/><path fill="#ffffff" d="M60 28l4.5 11.5 11.5 4.5-11.5 4.5-4.5 11.5-4.5-11.5-11.5-4.5 11.5-4.5Z"/><path fill="#5fe6c1" d="M110 32l2.2 5.8 5.8 2.2-5.8 2.2-2.2 5.8-2.2-5.8-5.8-2.2 5.8-2.2Z"/></svg>
