<svg xmlns="http://www.w3.org/2000/svg" viewBox="0 0 300 300" fill="none"><path fill="#ffffff" d="M70 30h120l50 50v170a20 20 0 0 1-20 20H70a20 20 0 0 1-20-20V50a20 20 0 0 1 20-20Z"/><path fill="#a2bcff" d="M190 30v40a10 10 0 0 0 10 10h40Z"/><rect x="82" y="68" width="80" height="18" rx="9" fill="#5f80e0"/><rect x="82" y="108" width="126" height="12" rx="6" fill="#a2bcff"/><rect x="82" y="134" width="104" height="12" rx="6" fill="#a2bcff"/><rect x="82" y="160" width="116" height="12" rx="6" fill="#a2bcff"/><circle cx="214" cy="222" r="52" fill="#00ab89"/><circle cx="214" cy="222" r="38" fill="#5fe6c1"/><path stroke="#ffffff" stroke-width="13" stroke-linecap="round" stroke-linejoin="round" d="M193 223l15 15 28-30"/><path fill="#5f80e0" d="M262 124l4.5 11.5 11.5 4.5-11.5 4.5-4.5 11.5-4.5-11.5-11.5-4.5 11.5-4.5Z"/><path fill="#ffffff" d="M36 219l3.1 7.9 7.9 3.1-7.9 3.1-3.1 7.9-3.1-7.9-7.9-3.1 7.9-3.1Z"/></svg>
